<?xml version="1.0" encoding="utf-8"?>
<!-- Generator: Adobe Illustrator 27.5.0, SVG Export Plug-In . SVG Version: 6.00 Build 0)  -->
<svg version="1.1" xmlns="http://www.w3.org/2000/svg" xmlns:xlink="http://www.w3.org/1999/xlink" x="0px" y="0px"
	 viewBox="0 0 1122 1122" style="enable-background:new 0 0 1122 1122;" xml:space="preserve">
<g id="Bg">
	<g>
		<g>
			<rect style="fill:#FFFFFF;" width="1122" height="1122"/>
		</g>
	</g>
</g>
<g id="Object">
	<g>
		<path style="fill:none;" d="M624.284,680.431l35.308,35.311c6.233,6.215,13.49,10.637,21.636,13.484
			c8.122,2.832,17.17,4.012,26.611,3.383c18.865-1.241,39.085-9.865,55.34-26.121c12.195-12.195,20.093-26.593,23.791-41.021
			c3.728-14.429,3.195-28.747-1.053-40.93c-2.845-8.15-7.287-15.387-13.503-21.618L636.431,466.918
			c-6.234-6.215-13.484-10.636-21.618-13.484c-8.152-2.832-17.188-4.031-26.611-3.401c-3.552,0.236-7.159,0.741-10.76,1.495
			l55.842,55.861c11.632,11.598,20.063,25.491,25.195,40.27c5.144,14.803,7.062,30.493,6.022,46.117
			C662.394,624.901,648.644,655.93,624.284,680.431z"/>
		<path style="fill:none;" d="M532.607,476.438c-12.067,12.134-19.887,26.435-23.555,40.755c-3.71,14.446-3.195,28.747,1.072,40.93
			c2.845,8.149,7.268,15.402,13.484,21.618l65.804,65.822c12.056-12.147,19.875-26.436,23.561-40.755
			c3.71-14.447,3.177-28.747-1.071-40.93c-2.85-8.149-7.268-15.403-13.49-21.618L532.607,476.438z"/>
		<path style="fill:none;" d="M497.723,441.568l-35.296-35.31c-6.246-6.197-13.484-10.637-21.636-13.484
			c-8.134-2.832-17.163-4.031-26.605-3.401c-18.882,1.247-39.102,9.868-55.34,26.139c-12.213,12.194-20.111,26.593-23.827,41.006
			c-3.71,14.443-3.177,28.75,1.072,40.945c2.845,8.149,7.286,15.387,13.502,21.618l136.013,136.002
			c6.216,6.197,13.472,10.636,21.606,13.484c8.134,2.832,17.182,4.012,26.611,3.383c3.553-0.236,7.154-0.723,10.76-1.477
			l-55.848-55.848c-11.626-11.611-20.056-25.504-25.188-40.283c-5.144-14.803-7.069-30.493-6.028-46.117
			C459.626,497.099,473.382,466.071,497.723,441.568z"/>
		<path style="fill:#616E7D;" d="M589.412,645.563l34.872,34.869c24.36-24.502,38.11-55.53,40.216-86.656
			c1.04-15.623-0.878-31.313-6.022-46.117c-5.133-14.779-13.563-28.672-25.195-40.27l-55.842-55.861l-38.709-38.709l-41.432-41.43
			c-11.626-11.629-25.509-20.063-40.283-25.191c-22.217-7.729-46.371-8.182-69.441-2.251c-23.065,5.919-45.221,18.301-63.619,36.682
			c-24.517,24.547-38.346,55.685-40.452,86.938c-1.059,15.608,0.866,31.313,6.009,46.104c5.144,14.791,13.581,28.669,25.207,40.283
			l136.002,135.999c11.614,11.611,25.491,20.047,40.283,25.177c22.217,7.725,46.353,8.182,69.423,2.266
			c7.758-1.997,15.408-4.784,22.864-8.213l-38.709-38.709c-3.607,0.754-7.207,1.241-10.76,1.477
			c-9.429,0.629-18.477-0.551-26.611-3.383c-8.134-2.848-15.39-7.287-21.606-13.484L349.593,519.081
			c-6.216-6.231-10.658-13.469-13.502-21.618c-4.249-12.195-4.781-26.502-1.072-40.945c3.716-14.413,11.614-28.811,23.827-41.006
			c16.238-16.271,36.458-24.892,55.34-26.139c9.442-0.63,18.471,0.569,26.605,3.401c8.152,2.848,15.39,7.287,21.636,13.484
			l35.296,35.31l34.884,34.869l65.804,65.822c6.221,6.215,10.639,13.469,13.49,21.618c4.249,12.183,4.781,26.484,1.071,40.93
			C609.287,619.127,601.468,633.416,589.412,645.563z"/>
		<path style="fill:#AAD4C8;" d="M532.607,476.438l-34.884-34.869c-24.341,24.502-38.097,55.531-40.204,86.657
			c-1.041,15.623,0.884,31.313,6.028,46.117c5.132,14.779,13.562,28.671,25.188,40.283l55.848,55.848l38.709,38.709l41.433,41.429
			c11.607,11.629,25.491,20.048,40.282,25.192c22.217,7.728,46.353,8.182,69.423,2.252c23.083-5.932,45.221-18.302,63.62-36.694
			c24.517-24.535,38.346-55.692,40.452-86.926c1.041-15.623-0.878-31.295-6.022-46.117c-5.132-14.779-13.568-28.656-25.195-40.271
			L671.302,432.064c-11.632-11.626-25.491-20.078-40.283-25.207c-22.223-7.711-46.359-8.182-69.429-2.266
			c-7.753,2-15.421,4.799-22.859,8.228l38.709,38.709c3.601-0.754,7.208-1.259,10.76-1.495c9.423-0.63,18.459,0.569,26.611,3.401
			c8.134,2.848,15.384,7.269,21.618,13.484L772.414,602.92c6.216,6.231,10.658,13.469,13.503,21.618
			c4.248,12.183,4.781,26.501,1.053,40.93c-3.698,14.428-11.596,28.826-23.791,41.021c-16.256,16.256-36.475,24.88-55.34,26.121
			c-9.441,0.629-18.489-0.551-26.611-3.383c-8.146-2.848-15.403-7.269-21.636-13.484l-35.308-35.311l-34.872-34.869l-65.804-65.822
			c-6.216-6.216-10.64-13.469-13.484-21.618c-4.267-12.183-4.781-26.484-1.072-40.93C512.72,502.873,520.54,488.572,532.607,476.438
			z"/>
	</g>
</g>
</svg>
